<svg width="257" height="67" viewBox="0 0 257 67" fill="none" xmlns="http://www.w3.org/2000/svg">
<path d="M43.709 17.6998L44.909 17.3998V4.49976H42.609C42.609 5.31309 42.389 6.09309 41.949 6.83976C41.7623 7.14642 41.549 7.39976 41.309 7.59976H40.709V3.99975H52.409V7.59976H51.809C51.5557 7.39976 51.3357 7.14642 51.149 6.83976C50.7223 6.11976 50.509 5.33976 50.509 4.49976H48.209V17.3998L49.409 17.6998V17.9998H43.709V17.6998ZM56.8043 17.6998L58.0043 17.3998V12.7998L53.9043 4.59976L52.9043 4.29975V3.99975H55.4043C56.0976 3.99975 56.651 4.14642 57.0643 4.43976C57.491 4.73309 57.8376 5.15309 58.1043 5.69976L61.0643 11.5998L64.1043 4.89976L62.6043 4.29975V3.99975H66.4043V4.29975L64.8043 4.89976L61.3043 12.5998V17.3998L62.5043 17.6998V17.9998H56.8043V17.6998ZM67.2051 17.6998L68.4051 17.3998V4.59976L67.2051 4.29975V3.99975H72.8051C75.0184 3.99975 76.6051 4.36642 77.5651 5.09976C78.5251 5.81976 79.0051 6.88642 79.0051 8.29976C79.0051 9.71309 78.5251 10.7864 77.5651 11.5198C76.6051 12.2398 75.0184 12.5998 72.8051 12.5998H71.7051V17.3998L72.9051 17.6998V17.9998H67.2051V17.6998ZM72.8051 12.0998C73.6451 12.0998 74.3184 11.7798 74.8251 11.1398C75.3451 10.4998 75.6051 9.55309 75.6051 8.29976C75.6051 7.05976 75.3451 6.11976 74.8251 5.47975C74.3184 4.82642 73.6451 4.49976 72.8051 4.49976H71.7051V12.0998H72.8051ZM80.7012 17.6998L81.9012 17.3998V4.59976L80.7012 4.29975V3.99975H91.4012V7.59976H90.8012C90.5478 7.39976 90.3278 7.14642 90.1412 6.83976C89.7145 6.11976 89.5012 5.33976 89.5012 4.49976H85.2012V10.7998H87.5012C87.5945 10.2931 87.7678 9.81976 88.0212 9.37976C88.1278 9.17976 88.2545 8.98642 88.4012 8.79976H89.0012V13.2998H88.4012C88.2545 13.1131 88.1278 12.9198 88.0212 12.7198C87.7678 12.2798 87.5945 11.8064 87.5012 11.2998H85.2012V17.4998H89.9012C89.9012 16.6598 90.1145 15.8798 90.5412 15.1598C90.7278 14.8531 90.9478 14.5998 91.2012 14.3998H91.8012V17.9998H80.7012V17.6998ZM98.4918 18.2998C97.5451 18.2998 96.6585 18.0864 95.8318 17.6598C95.4585 17.4731 95.1451 17.2531 94.8918 16.9998C94.7051 17.3064 94.4718 17.5798 94.1918 17.8198C93.9518 17.9931 93.8185 18.0864 93.7918 18.0998H93.2918V14.2998H94.0918C94.2918 14.9531 94.5718 15.5398 94.9318 16.0598C95.7451 17.2198 96.7985 17.7998 98.0918 17.7998C98.8518 17.7998 99.4585 17.5731 99.9118 17.1198C100.365 16.6664 100.592 16.0598 100.592 15.2998C100.592 14.8598 100.458 14.4664 100.192 14.1198C99.9385 13.7731 99.6185 13.4664 99.2318 13.1998C98.8451 12.9331 98.3051 12.5998 97.6118 12.1998C96.7318 11.7064 96.0185 11.2598 95.4718 10.8598C94.9251 10.4598 94.4585 9.95976 94.0718 9.35976C93.6851 8.74642 93.4918 8.02642 93.4918 7.19976C93.4918 6.54642 93.6718 5.95976 94.0318 5.43976C94.4051 4.90642 94.9585 4.48642 95.6918 4.17975C96.4251 3.85976 97.3251 3.69976 98.3918 3.69976C99.1651 3.69976 99.9385 3.91976 100.712 4.35976C101.005 4.51976 101.298 4.73309 101.592 4.99976C101.818 4.65309 102.052 4.37975 102.292 4.17975C102.532 4.00642 102.665 3.91309 102.692 3.89976H103.192V7.69975H102.392C102.218 7.05976 101.958 6.47976 101.612 5.95975C101.292 5.45309 100.892 5.03309 100.412 4.69976C99.9451 4.36642 99.4051 4.19975 98.7918 4.19975C98.2718 4.19975 97.8251 4.40642 97.4518 4.81976C97.0785 5.23309 96.8918 5.75976 96.8918 6.39976C96.8918 6.89309 97.0318 7.33976 97.3118 7.73976C97.6051 8.12642 97.9585 8.46642 98.3718 8.75976C98.7985 9.05309 99.3718 9.40642 100.092 9.81976C100.932 10.2998 101.612 10.7264 102.132 11.0998C102.652 11.4731 103.092 11.9398 103.452 12.4998C103.812 13.0464 103.992 13.6798 103.992 14.3998C103.992 15.1198 103.785 15.7798 103.372 16.3798C102.958 16.9664 102.338 17.4331 101.512 17.7798C100.685 18.1264 99.6785 18.2998 98.4918 18.2998ZM117.492 18.2998C116.185 18.2998 115.038 18.0198 114.052 17.4598C113.078 16.8864 112.325 16.0531 111.792 14.9598C111.258 13.8664 110.992 12.5464 110.992 10.9998C110.992 9.45309 111.258 8.13309 111.792 7.03976C112.325 5.94642 113.078 5.11975 114.052 4.55975C115.038 3.98642 116.185 3.69976 117.492 3.69976C118.798 3.69976 119.938 3.98642 120.912 4.55975C121.898 5.11975 122.658 5.94642 123.192 7.03976C123.725 8.13309 123.992 9.45309 123.992 10.9998C123.992 12.5464 123.725 13.8664 123.192 14.9598C122.658 16.0531 121.898 16.8864 120.912 17.4598C119.938 18.0198 118.798 18.2998 117.492 18.2998ZM117.492 17.8998C118.012 17.8998 118.492 17.6798 118.932 17.2398C119.385 16.7998 119.758 16.0664 120.052 15.0398C120.345 14.0131 120.492 12.6664 120.492 10.9998C120.492 9.33309 120.345 7.98642 120.052 6.95975C119.758 5.93309 119.385 5.19976 118.932 4.75975C118.492 4.31975 118.012 4.09975 117.492 4.09975C116.972 4.09975 116.485 4.31975 116.032 4.75975C115.592 5.19976 115.225 5.93309 114.932 6.95975C114.638 7.98642 114.492 9.33309 114.492 10.9998C114.492 12.6664 114.638 14.0131 114.932 15.0398C115.225 16.0664 115.592 16.7998 116.032 17.2398C116.485 17.6798 116.972 17.8998 117.492 17.8998ZM125.896 17.6998L127.096 17.3998V4.59976L125.896 4.29975V3.99975H136.596V7.59976H135.996C135.743 7.39976 135.523 7.14642 135.336 6.83976C134.91 6.11976 134.696 5.33976 134.696 4.49976H130.396V10.7998H132.696C132.79 10.2931 132.963 9.81976 133.216 9.37976C133.323 9.17976 133.45 8.98642 133.596 8.79976H134.196V13.2998H133.596C133.45 13.1131 133.323 12.9198 133.216 12.7198C132.963 12.2798 132.79 11.8064 132.696 11.2998H130.396V17.3998L131.596 17.6998V17.9998H125.896V17.6998ZM143.709 17.6998L144.909 17.3998V4.59976L143.709 4.29975V3.99975H149.009C151.276 3.99975 152.909 4.34642 153.909 5.03976C154.909 5.71976 155.409 6.67309 155.409 7.89976C155.409 8.72642 155.189 9.39976 154.749 9.91976C154.309 10.4264 153.742 10.8064 153.049 11.0598C152.316 11.3398 151.536 11.4864 150.709 11.4998V11.5998C151.202 11.6264 151.636 11.6998 152.009 11.8198C152.942 12.1131 153.576 12.6398 153.909 13.3998L155.709 17.3998L156.709 17.6998V17.9998H153.909C152.816 17.9998 152.016 17.4331 151.509 16.2998L149.509 11.7998H148.209V17.3998L149.609 17.6998V17.9998H143.709V17.6998ZM149.009 11.2998C149.942 11.2998 150.676 11.0064 151.209 10.4198C151.742 9.83309 152.009 8.99309 152.009 7.89976C152.009 6.80642 151.742 5.96642 151.209 5.37976C150.676 4.79309 149.942 4.49976 149.009 4.49976H148.209V11.2998H149.009ZM157.713 17.6998L158.913 17.3998V4.59976L157.713 4.29975V3.99975H168.413V7.59976H167.813C167.56 7.39976 167.34 7.14642 167.153 6.83976C166.726 6.11976 166.513 5.33976 166.513 4.49976H162.213V10.7998H164.513C164.606 10.2931 164.78 9.81976 165.033 9.37976C165.14 9.17976 165.266 8.98642 165.413 8.79976H166.013V13.2998H165.413C165.266 13.1131 165.14 12.9198 165.033 12.7198C164.78 12.2798 164.606 11.8064 164.513 11.2998H162.213V17.4998H166.913C166.913 16.6598 167.126 15.8798 167.553 15.1598C167.74 14.8531 167.96 14.5998 168.213 14.3998H168.813V17.9998H157.713V17.6998ZM170.604 17.6998L171.804 17.3998V4.59976L170.604 4.29975V3.99975H176.204C178.417 3.99975 180.004 4.36642 180.964 5.09976C181.924 5.81976 182.404 6.88642 182.404 8.29976C182.404 9.71309 181.924 10.7864 180.964 11.5198C180.004 12.2398 178.417 12.5998 176.204 12.5998H175.104V17.3998L176.304 17.6998V17.9998H170.604V17.6998ZM176.204 12.0998C177.044 12.0998 177.717 11.7798 178.224 11.1398C178.744 10.4998 179.004 9.55309 179.004 8.29976C179.004 7.05976 178.744 6.11976 178.224 5.47975C177.717 4.82642 177.044 4.49976 176.204 4.49976H175.104V12.0998H176.204ZM181.293 17.6998L182.893 17.0998L188.393 3.79976H188.993L194.693 17.3998L195.693 17.6998V17.9998H193.293C192.6 17.9998 192.033 17.8464 191.593 17.5398C191.153 17.2198 190.827 16.8064 190.613 16.2998L189.593 13.8998H184.813L183.493 17.0998L184.993 17.6998V17.9998H181.293V17.6998ZM185.013 13.3998H189.393L187.193 8.13976L185.013 13.3998ZM196.287 17.9998V17.6998L197.487 17.3998V4.59976L196.287 4.29975V3.99975H201.987V4.29975L200.787 4.59976V17.3998L201.987 17.6998V17.9998H196.287ZM203.787 17.6998L204.987 17.3998V4.59976L203.787 4.29975V3.99975H209.087C211.354 3.99975 212.987 4.34642 213.987 5.03976C214.987 5.71976 215.487 6.67309 215.487 7.89976C215.487 8.72642 215.267 9.39976 214.827 9.91976C214.387 10.4264 213.82 10.8064 213.127 11.0598C212.394 11.3398 211.614 11.4864 210.787 11.4998V11.5998C211.28 11.6264 211.714 11.6998 212.087 11.8198C213.02 12.1131 213.654 12.6398 213.987 13.3998L215.787 17.3998L216.787 17.6998V17.9998H213.987C212.894 17.9998 212.094 17.4331 211.587 16.2998L209.587 11.7998H208.287V17.3998L209.687 17.6998V17.9998H203.787V17.6998ZM209.087 11.2998C210.02 11.2998 210.754 11.0064 211.287 10.4198C211.82 9.83309 212.087 8.99309 212.087 7.89976C212.087 6.80642 211.82 5.96642 211.287 5.37976C210.754 4.79309 210.02 4.49976 209.087 4.49976H208.287V11.2998H209.087Z" fill="#181818"/>
<rect x="71.5" y="51.9995" width="32" height="1.54334" rx="0.771672" fill="#E3B873"/>
<rect x="153.5" y="51.9995" width="32" height="1.54334" rx="0.771672" fill="#E3B873"/>
<path d="M138.905 60.1432C138.323 59.734 137.652 59.5141 136.974 59.4783C134.419 57.8051 132.746 56.5493 131.769 55.5721L128.767 52.5705L130.588 50.5315C130.934 50.7264 131.304 50.8548 131.675 50.9078C131.955 50.9544 132.142 50.9544 132.328 50.9544C132.701 50.9544 132.795 50.9544 133.168 51.2809C132.981 51.4208 132.888 51.654 132.888 51.8872C132.888 52.1204 132.981 52.4003 133.168 52.5869L134.8 54.2194C135.034 54.4993 135.407 54.6392 135.78 54.6392C136.153 54.6392 136.526 54.4993 136.759 54.1728L140.071 50.8611C140.351 50.6279 140.491 50.2548 140.491 49.8816C140.491 49.5084 140.351 49.1819 140.071 48.9021L138.439 47.2695C138.252 47.083 138.019 46.9897 137.786 46.9897C137.552 46.9897 137.319 47.1296 137.133 47.2695C136.759 46.9431 136.759 46.8498 136.759 46.4766C136.759 46.29 136.759 46.0568 136.666 45.7769C136.573 45.1239 136.246 44.471 135.733 43.9579L134.054 42.2787C133.074 41.2992 132.608 40.8328 131.349 40.2731C128.643 39.0137 125.891 39.2469 121.88 41.066C121.647 41.1593 121.554 41.3459 121.6 41.5791C121.647 41.8123 121.833 41.9523 122.067 41.9523H122.673C124.725 41.9523 125.798 41.9523 127.664 43.818C128.481 44.6349 128.504 45.8876 127.772 46.8092C127.674 46.8241 127.599 46.8683 127.524 46.9431L125.452 49.2556L123.886 47.6894C122.164 45.9679 120.953 44.3392 120.022 42.5257C119.973 41.608 119.604 40.7494 118.942 40.0866C118.149 39.2937 117.029 38.9205 115.91 39.0138C115.77 39.0604 115.63 39.1537 115.583 39.247C115.49 39.387 115.49 39.5735 115.583 39.7134L116.889 42.0456C116.609 42.652 115.956 43.0251 115.303 42.9785L113.951 40.7396C113.904 40.5997 113.718 40.5063 113.578 40.5063C113.438 40.4597 113.298 40.553 113.204 40.6929C112.085 42.3721 112.505 44.6109 114.184 45.777C114.763 46.1902 115.414 46.42 116.074 46.4671C116.082 46.4703 116.089 46.4741 116.096 46.4766C117.915 47.4095 119.548 48.6222 121.274 50.3481L122.98 52.0151L113.065 63.0817C112.691 63.4549 112.505 63.9679 112.505 64.481C112.505 64.9941 112.691 65.4605 113.065 65.8337L113.718 66.4867C114.091 66.8132 114.557 66.9998 115.024 66.9998C115.49 66.9998 116.003 66.8133 116.376 66.4401L126.28 55.3543L129.157 58.2309C130.135 59.2094 131.393 60.933 133.07 63.4478C133.13 64.3455 133.497 65.1837 134.147 65.8337C134.847 66.5333 135.78 66.9065 136.759 66.9065C136.899 66.9065 137.039 66.9065 137.133 66.9065C137.272 66.9065 137.412 66.8132 137.506 66.6733C137.599 66.5333 137.599 66.3468 137.506 66.2069L136.153 63.9214C136.48 63.315 137.086 62.9418 137.786 62.9885L139.092 65.2273C139.138 65.3673 139.325 65.4606 139.465 65.4606C139.651 65.414 139.791 65.3673 139.885 65.2273C141.004 63.5481 140.537 61.3093 138.905 60.1432ZM128.27 43.0718C126.778 41.6258 125.658 41.1594 124.399 41.0194C127.058 40.1799 129.017 40.2265 130.976 41.1127C132.095 41.5792 132.468 41.9523 133.448 42.9318L135.127 44.611C135.5 44.9842 135.733 45.4506 135.78 45.917C135.827 46.1502 135.827 46.3368 135.827 46.4767C135.827 46.9898 135.873 47.3629 136.433 47.9226C136.619 48.1092 136.899 48.2025 137.133 48.2025C137.412 48.2025 137.646 48.1092 137.786 47.9226L139.418 49.5552C139.511 49.6485 139.558 49.7417 139.558 49.8816C139.558 50.0216 139.511 50.1149 139.418 50.2081L136.106 53.5198C135.92 53.7064 135.64 53.7064 135.453 53.5198L133.821 51.8873C134.007 51.7474 134.101 51.5141 134.054 51.2343C134.054 51.001 133.961 50.7212 133.774 50.5346C133.214 49.9749 132.841 49.9283 132.328 49.9283C132.188 49.9283 132.002 49.9283 131.769 49.8816C131.255 49.835 130.836 49.6018 130.463 49.2286L128.457 47.223C129.483 45.9637 129.39 44.1912 128.27 43.0718ZM113.624 41.9523L114.604 43.6315C114.697 43.7714 114.837 43.8647 114.977 43.8647H115.21C116.283 43.9113 117.263 43.3516 117.729 42.4188L117.822 42.1856C117.916 42.0456 117.916 41.9057 117.822 41.7658L116.796 39.9933C117.356 40.0866 117.869 40.3665 118.289 40.7863C118.77 41.3072 119.077 41.9661 119.096 42.6738C119.087 42.7097 119.082 42.7484 119.082 42.792C119.082 43.008 119.056 43.2187 119.007 43.4218C118.831 44.0972 118.409 44.686 117.822 45.0775C116.889 45.6839 115.63 45.6839 114.697 45.0309C113.718 44.3311 113.298 43.0718 113.624 41.9523ZM121.927 49.6951C120.528 48.2492 119.128 47.1297 117.636 46.2435C117.869 46.1502 118.149 46.0102 118.382 45.8703C119.082 45.4039 119.548 44.7975 119.828 44.0512C120.714 45.5438 121.833 46.9431 123.233 48.3424L124.835 49.9445L123.578 51.3468L121.927 49.6951ZM115.723 65.7404C115.35 66.1135 114.744 66.1602 114.371 65.787L113.718 65.1807C113.531 64.9941 113.438 64.7609 113.438 64.5276C113.438 64.2478 113.531 64.0145 113.764 63.7814L114.028 63.4858L114.697 64.1545C114.79 64.2478 114.884 64.2945 115.024 64.2945C115.163 64.2945 115.257 64.2478 115.35 64.1545C115.537 63.968 115.537 63.6881 115.35 63.5015L114.645 62.7962L115.261 62.1065L116.003 62.8485C116.096 62.9418 116.19 62.9884 116.33 62.9884C116.469 62.9884 116.563 62.9418 116.656 62.8485C116.843 62.6619 116.843 62.3821 116.656 62.1955L115.878 61.4169L127.875 47.9939L129.834 49.9529L127.909 52.1065C127.854 52.1298 127.806 52.1653 127.757 52.2138L125.892 54.3128C125.838 54.3661 125.801 54.4271 125.778 54.4912L115.723 65.7404ZM126.918 54.6399L128.195 53.211L131.209 56.2252C132.048 57.1114 133.494 58.2308 135.593 59.6301C135.313 59.7234 135.034 59.8633 134.754 60.0499C134.175 60.4116 133.765 60.9137 133.48 61.4689C133.475 61.4768 133.471 61.4849 133.467 61.4929C133.45 61.5263 133.434 61.5598 133.418 61.5936C133.395 61.6414 133.373 61.6898 133.352 61.7387C133.338 61.7717 133.323 61.8048 133.31 61.8381C133.308 61.8429 133.306 61.8477 133.304 61.8525C133.289 61.889 133.275 61.9255 133.261 61.9623C132.996 61.5737 132.741 61.207 132.496 60.8615L133.121 60.2365C133.308 60.0499 133.308 59.7701 133.121 59.5835C132.935 59.3969 132.655 59.3969 132.468 59.5835L131.948 60.1035C131.754 59.8404 131.567 59.5923 131.387 59.3591L131.815 58.9305C132.002 58.7439 132.002 58.464 131.815 58.2774C131.629 58.0909 131.349 58.0909 131.162 58.2774L130.806 58.6335C130.463 58.2203 130.147 57.8687 129.856 57.5778L126.918 54.6399ZM139.418 63.9679L138.439 62.2888C138.345 62.1488 138.205 62.0555 138.065 62.0555H137.832C136.759 61.9622 135.78 62.5686 135.313 63.5015L135.22 63.7347C135.127 63.8746 135.127 64.0145 135.22 64.1545L136.246 65.9269C135.686 65.8336 135.173 65.5538 134.754 65.134C134.282 64.6229 133.977 63.979 133.948 63.2866C133.956 63.2525 133.961 63.2159 133.961 63.175C133.961 62.5841 134.148 62.0309 134.475 61.5623C134.676 61.2827 134.927 61.038 135.22 60.8428C135.686 60.5164 136.2 60.3764 136.759 60.3764C137.319 60.3764 137.879 60.563 138.345 60.8895C139.325 61.5891 139.745 62.8485 139.418 63.9679Z" fill="#E3B873"/>
</svg>
